<?xml version="1.0" encoding="utf-8"?>
<!-- Generator: Adobe Illustrator 28.0.0, SVG Export Plug-In . SVG Version: 6.00 Build 0)  -->
<svg version="1.1" id="Capa_1" xmlns="http://www.w3.org/2000/svg" xmlns:xlink="http://www.w3.org/1999/xlink" x="0px" y="0px"
	 viewBox="0 0 350 96" style="enable-background:new 0 0 350 96;" xml:space="preserve">
<style type="text/css">
	.st0{fill:#EA811B;}
	.st1{fill:#0A5A9C;}
</style>
<g>
	<g>
		<path class="st0" d="M0,19.3h0.3c1,3.9,4.8,6.9,9.3,6.9c3.4,0,6.5-1.7,8.1-4.3c0.8-1.2,1.1-2.5,1.1-3.9V9c0-4.9,4.3-9,9.6-9
			c5.3,0,9.6,4,9.6,9v9c0,1.4,0.3,2.7,1.1,3.9c1.7,2.6,4.7,4.4,8.2,4.4c3.4,0,6.5-1.7,8.1-4.3c0.8-1.2,1.1-2.5,1.1-3.9V9
			c0-4.9,4.3-9,9.6-9c5.3,0,9.6,4,9.6,9v9c0,1.4,0.3,2.7,1.1,3.9c1.7,2.6,4.7,4.4,8.2,4.4c4.5,0,8.3-2.9,9.3-6.9h0.3v19.8
			c0,4.9-4.3,9-9.6,9c-5.3,0-9.6-4-9.6-9V28.9c0-1.4-0.3-2.7-1.1-3.9c-1.7-2.6-4.7-4.4-8.2-4.4c-3.4,0-6.5,1.7-8.1,4.3
			c-0.8,1.2-1.1,2.5-1.1,3.9v9c0,4.9-4.3,9-9.6,9c-5.3,0-9.6-4-9.6-9v-9c0-1.4-0.3-2.7-1.1-3.9c-1.7-2.6-4.7-4.4-8.2-4.4
			c-3.4,0-6.5,1.7-8.1,4.3c-0.8,1.2-1.1,2.5-1.1,3.9v10c0,4.9-4.3,9-9.6,9c-5.3,0-9.6-4-9.6-9L0,19.3L0,19.3z"/>
	</g>
	<g>
		<path class="st0" d="M0,65.6h0.3c1,3.9,4.8,6.9,9.3,6.9c3.4,0,6.5-1.7,8.1-4.3c0.8-1.2,1.1-2.5,1.1-3.9v-9c0-4.9,4.3-9,9.6-9
			c5.3,0,9.6,4,9.6,9v9c0,1.4,0.3,2.7,1.1,3.9c1.7,2.6,4.7,4.4,8.2,4.4c3.4,0,6.5-1.7,8.1-4.3c0.8-1.2,1.1-2.5,1.1-3.9v-9
			c0-4.9,4.3-9,9.6-9c5.3,0,9.6,4,9.6,9v9c0,1.4,0.3,2.7,1.1,3.9c1.7,2.6,4.7,4.4,8.2,4.4c4.5,0,8.3-2.9,9.3-6.9h0.3v19.8
			c0,4.9-4.3,9-9.6,9c-5.3,0-9.6-4-9.6-9V75.1c0-1.4-0.3-2.7-1.1-3.9c-1.7-2.6-4.7-4.4-8.2-4.4c-3.4,0-6.5,1.7-8.1,4.3
			c-0.8,1.2-1.1,2.5-1.1,3.9v9c0,4.9-4.3,9-9.6,9c-5.3,0-9.6-4-9.6-9v-9c0-1.4-0.3-2.7-1.1-3.9c-1.7-2.6-4.7-4.4-8.2-4.4
			c-3.4,0-6.5,1.7-8.1,4.3c-0.8,1.2-1.1,2.5-1.1,3.9v10c0,4.9-4.3,9-9.6,9c-5.3,0-9.6-4-9.6-9L0,65.6L0,65.6z"/>
	</g>
	<g>
		<path class="st1" d="M338.3,42.8v-2H331c-4.7,0-7,1.5-7,4.4c0,1.5,0.6,2.7,1.7,3.5c1.1,0.8,2.7,1.2,4.8,1.2c2.1,0,3.9-0.6,5.5-1.9
			C337.5,46.7,338.3,45,338.3,42.8 M350,58.9h-10.9v-5.1c-3,3.8-6.7,5.7-11.1,5.7c-4.4,0-8.1-1.3-11.1-3.9c-3-2.6-4.5-6-4.5-10.3
			s1.6-7.5,4.7-9.6c3.1-2.1,7.4-3.2,12.7-3.2h8.7v-0.2c0-4.5-2.4-6.7-7.1-6.7c-2,0-4.2,0.4-6.4,1.2c-2.3,0.8-4.2,1.8-5.7,3l-5.2-7.6
			c5.5-4,11.8-6,18.8-6c5.1,0,9.2,1.3,12.4,3.8c3.2,2.6,4.8,6.6,4.8,12.1L350,58.9L350,58.9z M295.6,25.3v18.8
			c0,1.6,0.4,2.9,1.2,3.8c0.8,0.9,1.8,1.4,3,1.4c2.2,0,4-1,5.5-3l4.3,8.2c-3.6,3.3-7.4,5-11.5,5c-4,0-7.4-1.3-10.2-4
			c-2.8-2.7-4.2-6.3-4.2-10.9V25.3h-4.9v-8.4h4.9V4.3h11.7v12.6h10.1v8.4H295.6z M263.2,33.6c-0.3-2.5-1.2-4.4-2.8-5.8
			c-1.6-1.4-3.6-2-5.9-2s-4.4,0.7-6.3,2.1c-1.9,1.4-3,3.3-3.3,5.7L263.2,33.6L263.2,33.6z M271.6,52.8c-4.7,4.5-10.2,6.7-16.6,6.7
			c-6.3,0-11.6-2-15.7-5.9c-4.1-3.9-6.2-9.2-6.2-15.8c0-6.6,2.1-11.9,6.3-15.8c4.2-3.9,9.2-5.9,14.9-5.9c5.7,0,10.6,1.7,14.6,5.2
			c4,3.5,6,8.3,6,14.4V42h-30.4c0.4,2.3,1.6,4.2,3.6,5.6c2,1.5,4.3,2.2,6.8,2.2c4.1,0,7.5-1.4,10.1-4.1L271.6,52.8z M214,39.5V16.8
			h11.7v42H214v-5.5c-2.9,4.1-6.6,6.2-11.2,6.2c-4.6,0-8.4-1.4-11.5-4.3c-3.1-2.9-4.7-7.2-4.7-12.8V16.8h11.7v22.9
			c0,6.5,2.4,9.7,7.1,9.7c2.3,0,4.3-0.8,6.1-2.5C213.2,45.2,214,42.7,214,39.5z M178.4,27.1c-3.5,0-6.1,1.2-7.8,3.7
			c-1.7,2.5-2.6,5.7-2.6,9.8v18.2h-11.6v-42h11.6v5.5c1.5-1.7,3.4-3.2,5.6-4.4c2.3-1.2,4.5-1.8,6.9-1.9l0.1,11H178.4z M137,14.8v44
			h-12.1v-44h-15.4V4.3h42.9v10.5H137z"/>
	</g>
	<g>
		<path class="st1" d="M342.8,89.7c1,0,1.9-0.2,2.6-0.7c0.7-0.5,1.3-1.2,1.6-2v-2.2h-4.2c-2.3,0-3.4,0.8-3.4,2.4
			c0,0.8,0.3,1.4,0.9,1.9C340.9,89.5,341.7,89.7,342.8,89.7 M343.4,77.4c1.8,0,3.1,0.4,4,1.3c0.9,0.9,1.4,2.2,1.4,3.9V91h-1.7v-2.1
			c-0.4,0.7-1,1.3-1.8,1.6c-0.8,0.4-1.7,0.6-2.8,0.6c-1.5,0-2.7-0.4-3.6-1.1c-0.9-0.7-1.3-1.7-1.3-2.9c0-1.1,0.4-2.1,1.2-2.8
			c0.8-0.7,2.1-1.1,3.9-1.1h4.3v-0.8c0-1.2-0.3-2.1-1-2.7c-0.6-0.6-1.6-0.9-2.8-0.9c-0.9,0-1.7,0.1-2.5,0.4c-0.8,0.3-1.5,0.7-2,1.2
			l-0.8-1.4c0.7-0.6,1.5-1,2.5-1.3C341.3,77.6,342.4,77.4,343.4,77.4z M328.7,77.4c1.7,0,3,0.5,4,1.5c1,1,1.5,2.4,1.5,4.3V91h-1.8
			v-7.7c0-1.4-0.3-2.5-1-3.2c-0.7-0.7-1.7-1.1-3-1.1c-1.4,0-2.6,0.4-3.4,1.3s-1.3,2.1-1.3,3.6V91h-1.8V77.5h1.7V80
			c0.5-0.8,1.2-1.5,2.1-1.9C326.6,77.6,327.6,77.4,328.7,77.4z M311.8,89.5c1,0,1.8-0.2,2.6-0.7c0.8-0.4,1.3-1.1,1.8-1.9
			c0.4-0.8,0.6-1.7,0.6-2.7s-0.2-1.9-0.6-2.7c-0.4-0.8-1-1.4-1.8-1.9c-0.8-0.4-1.6-0.7-2.6-0.7c-1,0-1.8,0.2-2.6,0.7
			c-0.8,0.4-1.4,1.1-1.8,1.9c-0.4,0.8-0.7,1.7-0.7,2.7c0,1,0.2,1.9,0.7,2.7c0.4,0.8,1,1.4,1.8,1.9C310,89.3,310.9,89.5,311.8,89.5z
			 M311.8,91.1c-1.3,0-2.5-0.3-3.5-0.9c-1-0.6-1.9-1.4-2.5-2.5c-0.6-1-0.9-2.2-0.9-3.5s0.3-2.5,0.9-3.5c0.6-1,1.4-1.9,2.5-2.4
			c1-0.6,2.2-0.9,3.5-0.9s2.5,0.3,3.5,0.9c1,0.6,1.9,1.4,2.4,2.4c0.6,1,0.9,2.2,0.9,3.5s-0.3,2.5-0.9,3.5c-0.6,1-1.4,1.9-2.4,2.5
			C314.3,90.8,313.1,91.1,311.8,91.1z M298.6,80.2c0.4-0.9,1.1-1.6,1.9-2.1c0.8-0.5,1.9-0.7,3.1-0.7v1.8l-0.4,0
			c-1.4,0-2.5,0.4-3.3,1.3c-0.8,0.9-1.2,2.1-1.2,3.7V91h-1.8V77.5h1.7L298.6,80.2L298.6,80.2z M291.4,74.6c-0.4,0-0.7-0.1-0.9-0.4
			c-0.3-0.3-0.4-0.6-0.4-0.9c0-0.3,0.1-0.6,0.4-0.9c0.3-0.3,0.6-0.4,0.9-0.4s0.7,0.1,0.9,0.4c0.3,0.2,0.4,0.5,0.4,0.9
			c0,0.4-0.1,0.7-0.4,1C292.1,74.4,291.8,74.6,291.4,74.6z M290.5,77.5h1.8V91h-1.8V77.5z M284.2,82h1.8v6.9c-0.8,0.7-1.8,1.3-3,1.7
			c-1.1,0.4-2.3,0.6-3.6,0.6c-1.8,0-3.4-0.4-4.8-1.2c-1.4-0.8-2.6-1.9-3.4-3.3c-0.8-1.4-1.2-3-1.2-4.7c0-1.7,0.4-3.3,1.2-4.7
			c0.8-1.4,1.9-2.5,3.4-3.3c1.4-0.8,3-1.2,4.9-1.2c1.4,0,2.6,0.2,3.8,0.7c1.1,0.4,2.1,1.1,2.9,1.9l-1.2,1.2
			c-1.4-1.4-3.2-2.1-5.4-2.1c-1.4,0-2.8,0.3-3.9,1c-1.2,0.6-2.1,1.5-2.7,2.7c-0.7,1.1-1,2.4-1,3.8c0,1.4,0.3,2.7,1,3.8
			c0.7,1.1,1.6,2,2.7,2.7c1.2,0.7,2.5,1,3.9,1c1.8,0,3.4-0.5,4.7-1.4L284.2,82L284.2,82z M254.8,79c-1.3,0-2.4,0.4-3.3,1.2
			s-1.4,1.9-1.5,3.3h9.5c-0.1-1.3-0.6-2.4-1.5-3.3C257.2,79.4,256.1,79,254.8,79z M261.3,84.8H250c0.1,1.4,0.6,2.5,1.6,3.4
			c1,0.9,2.2,1.3,3.7,1.3c0.8,0,1.6-0.2,2.3-0.4c0.7-0.3,1.3-0.7,1.8-1.3l1,1.2c-0.6,0.7-1.3,1.3-2.2,1.6c-0.9,0.4-1.9,0.6-3,0.6
			c-1.4,0-2.6-0.3-3.7-0.9c-1.1-0.6-1.9-1.4-2.5-2.5c-0.6-1-0.9-2.2-0.9-3.5s0.3-2.5,0.9-3.5c0.6-1,1.4-1.9,2.3-2.4
			c1-0.6,2.1-0.9,3.4-0.9c1.2,0,2.4,0.3,3.3,0.9c1,0.6,1.8,1.4,2.3,2.4c0.6,1,0.8,2.2,0.8,3.6L261.3,84.8z M238.2,89.5
			c0.9,0,1.8-0.2,2.5-0.7c0.8-0.4,1.4-1.1,1.8-1.9c0.4-0.8,0.7-1.7,0.7-2.7s-0.2-1.9-0.7-2.7c-0.4-0.8-1-1.4-1.8-1.9
			c-0.8-0.4-1.6-0.7-2.5-0.7c-1,0-1.8,0.2-2.6,0.7c-0.8,0.4-1.4,1.1-1.8,1.9c-0.4,0.8-0.7,1.7-0.7,2.7c0,1,0.2,1.9,0.7,2.7
			c0.4,0.8,1,1.4,1.8,1.9C236.4,89.3,237.3,89.5,238.2,89.5z M245,72V91h-1.7v-2.7c-0.5,0.9-1.3,1.6-2.2,2.1c-0.9,0.5-1.9,0.7-3,0.7
			c-1.3,0-2.4-0.3-3.4-0.9c-1-0.6-1.8-1.4-2.4-2.4c-0.6-1-0.9-2.2-0.9-3.6c0-1.3,0.3-2.5,0.9-3.6c0.6-1,1.4-1.9,2.4-2.4
			c1-0.6,2.2-0.9,3.4-0.9c1.1,0,2.1,0.2,3,0.7c0.9,0.5,1.6,1.1,2.2,2V72L245,72L245,72z M219.6,72h1.8V91h-1.8V72z M209.1,89.7
			c1,0,1.9-0.2,2.6-0.7c0.7-0.5,1.3-1.2,1.6-2v-2.2h-4.2c-2.3,0-3.4,0.8-3.4,2.4c0,0.8,0.3,1.4,0.9,1.9
			C207.2,89.5,208,89.7,209.1,89.7z M209.7,77.4c1.8,0,3.1,0.4,4,1.3c0.9,0.9,1.4,2.2,1.4,3.9V91h-1.7v-2.1c-0.4,0.7-1,1.3-1.8,1.6
			c-0.8,0.4-1.7,0.6-2.8,0.6c-1.5,0-2.7-0.4-3.6-1.1c-0.9-0.7-1.3-1.7-1.3-2.9c0-1.1,0.4-2.1,1.2-2.8c0.8-0.7,2.1-1.1,3.9-1.1h4.3
			v-0.8c0-1.2-0.3-2.1-1-2.7c-0.6-0.6-1.6-0.9-2.8-0.9c-0.9,0-1.7,0.1-2.5,0.4c-0.8,0.3-1.5,0.7-2,1.2l-0.8-1.4
			c0.7-0.6,1.5-1,2.5-1.3C207.7,77.6,208.7,77.4,209.7,77.4z M202.2,90.2c-0.3,0.3-0.8,0.5-1.3,0.7c-0.5,0.2-1,0.2-1.6,0.2
			c-1.3,0-2.2-0.3-2.9-1c-0.7-0.7-1-1.7-1-2.9V79H193v-1.5h2.4v-3h1.8v3h4.1V79h-4.1v8.1c0,0.8,0.2,1.4,0.6,1.8
			c0.4,0.4,1,0.6,1.7,0.6c0.4,0,0.7-0.1,1.1-0.2c0.3-0.1,0.7-0.3,0.9-0.5L202.2,90.2z M189.7,74.6c-0.4,0-0.7-0.1-0.9-0.4
			c-0.3-0.3-0.4-0.6-0.4-0.9c0-0.3,0.1-0.6,0.4-0.9c0.3-0.3,0.6-0.4,0.9-0.4c0.4,0,0.7,0.1,0.9,0.4c0.3,0.2,0.4,0.5,0.4,0.9
			c0,0.4-0.1,0.7-0.4,1C190.4,74.4,190,74.6,189.7,74.6z M188.7,77.5h1.8V91h-1.8V77.5z M178.7,89.5c0.9,0,1.8-0.2,2.6-0.7
			c0.8-0.4,1.4-1.1,1.8-1.9c0.4-0.8,0.7-1.7,0.7-2.7s-0.2-1.9-0.7-2.7c-0.4-0.8-1-1.4-1.8-1.9c-0.8-0.4-1.6-0.7-2.6-0.7
			c-1,0-1.8,0.2-2.6,0.7c-0.8,0.4-1.4,1.1-1.8,1.9c-0.4,0.8-0.7,1.7-0.7,2.7c0,1,0.2,1.9,0.7,2.7c0.4,0.8,1,1.4,1.8,1.9
			C176.9,89.3,177.7,89.5,178.7,89.5z M178.8,77.4c1.3,0,2.4,0.3,3.4,0.9c1,0.6,1.8,1.4,2.4,2.4c0.6,1,0.9,2.2,0.9,3.6
			c0,1.4-0.3,2.6-0.9,3.6c-0.6,1-1.4,1.9-2.4,2.4c-1,0.6-2.2,0.9-3.4,0.9c-1.1,0-2.1-0.2-3-0.7c-0.9-0.5-1.6-1.1-2.2-2V96h-1.8V77.5
			h1.7v2.7c0.5-0.9,1.3-1.6,2.2-2.1C176.7,77.6,177.7,77.4,178.8,77.4z M163.5,91.1c-1.1,0-2.1-0.2-3.1-0.5c-1-0.3-1.8-0.7-2.3-1.2
			l0.8-1.4c0.6,0.4,1.3,0.8,2.1,1.1s1.7,0.4,2.7,0.4c1.2,0,2.1-0.2,2.7-0.6s0.9-0.9,0.9-1.6c0-0.5-0.2-0.9-0.5-1.2
			c-0.3-0.3-0.7-0.5-1.2-0.6c-0.5-0.1-1.1-0.3-2-0.4c-1.1-0.2-2-0.4-2.6-0.6s-1.2-0.6-1.7-1.1c-0.5-0.5-0.7-1.2-0.7-2.1
			c0-1.1,0.5-2.1,1.4-2.8c0.9-0.7,2.2-1.1,3.9-1.1c0.9,0,1.7,0.1,2.6,0.3c0.9,0.2,1.6,0.5,2.1,0.9l-0.8,1.5c-1.1-0.8-2.4-1.2-4-1.2
			c-1.2,0-2,0.2-2.6,0.6c-0.6,0.4-0.9,1-0.9,1.6c0,0.5,0.2,0.9,0.5,1.2c0.3,0.3,0.7,0.5,1.2,0.7c0.5,0.1,1.2,0.3,2,0.5
			c1.1,0.2,1.9,0.4,2.6,0.6c0.6,0.2,1.2,0.6,1.7,1.1c0.5,0.5,0.7,1.2,0.7,2.1c0,1.2-0.5,2.1-1.5,2.8
			C166.6,90.8,165.2,91.1,163.5,91.1z M149.8,89.5c1,0,1.8-0.2,2.6-0.7c0.8-0.4,1.3-1.1,1.8-1.9c0.4-0.8,0.6-1.7,0.6-2.7
			s-0.2-1.9-0.6-2.7c-0.4-0.8-1-1.4-1.8-1.9c-0.8-0.4-1.6-0.7-2.6-0.7c-1,0-1.8,0.2-2.6,0.7c-0.8,0.4-1.4,1.1-1.8,1.9
			c-0.4,0.8-0.7,1.7-0.7,2.7c0,1,0.2,1.9,0.7,2.7c0.4,0.8,1,1.4,1.8,1.9C148,89.3,148.9,89.5,149.8,89.5z M149.8,91.1
			c-1.3,0-2.5-0.3-3.5-0.9c-1-0.6-1.9-1.4-2.5-2.5c-0.6-1-0.9-2.2-0.9-3.5s0.3-2.5,0.9-3.5c0.6-1,1.4-1.9,2.5-2.4
			c1-0.6,2.2-0.9,3.5-0.9s2.5,0.3,3.5,0.9c1,0.6,1.9,1.4,2.4,2.4c0.6,1,0.9,2.2,0.9,3.5s-0.3,2.5-0.9,3.5c-0.6,1-1.4,1.9-2.4,2.5
			C152.3,90.8,151.1,91.1,149.8,91.1z M139.4,73v18h-1.9v-8.3h-11.2V91h-1.9V73h1.9v8h11.2v-8H139.4z"/>
	</g>
</g>
</svg>
